Coordinates
version=1
nRows=26
nColumns=30
inDegrees=yes

Units are S.I. units (second, meters, Newtons, ...)
Angles are in degrees.

endheader
time	floatyaw	floatroll	floatpitch	floatx	floaty	floatz	pro_sup_l	deviation_l	flexion_l	cmc_flexion_l	cmc_abduction_l	mp_flexion_l	ip_flexion_l	2mcp_flexion_l	2mcp_abduction_l	2pm_flexion_l	2md_flexion_l	3mcp_flexion_l	3mcp_abduction_l	3pm_flexion_l	3md_flexion_l	4mcp_flexion_l	4mcp_abduction_l	4pm_flexion_l	4md_flexion_l	5mcp_flexion_l	5mcp_abduction_l	5pm_flexion_l	5md_flexion_l
-0.995000	-160.147433	-5.066637	-73.570646	0.082058	-0.182015	-0.017398	102.671598	3.880210	-0.502813	16.685937	5.097781	-24.841219	-40.715227	28.688904	7.911501	42.410461	29.448744	24.079135	4.529839	43.207094	28.509333	12.453582	-4.525492	52.429734	35.846887	0.374756	-9.400503	61.633160	44.079829
-0.985000	-160.147433	-5.066637	-73.570646	0.082064	-0.182004	-0.017399	102.663566	3.874558	-0.488695	16.666866	5.085169	-24.831300	-40.687882	28.692770	7.908762	42.406820	29.457798	24.075287	4.524462	43.204079	28.507479	12.432288	-4.520574	52.423228	35.843802	0.350964	-9.395537	61.635090	44.100549
-0.975000	-160.147433	-5.066637	-73.570646	0.082073	-0.181988	-0.017399	102.656889	3.871214	-0.471161	16.642374	5.078301	-24.821203	-40.653394	28.694211	7.906364	42.395741	29.468735	24.068556	4.519548	43.194306	28.506645	12.411979	-4.517005	52.413633	35.840489	0.324715	-9.386825	61.622762	44.119531
-0.965000	-160.147433	-5.066637	-73.570646	0.082084	-0.181968	-0.017396	102.652857	3.872144	-0.451911	16.613580	5.082229	-24.810750	-40.613223	28.690163	7.906139	42.381301	29.479752	24.060515	4.515507	43.182016	28.506722	12.397404	-4.515106	52.402124	35.837226	0.304271	-9.376041	61.598491	44.132843
-0.955000	-160.147433	-5.066637	-73.570646	0.082095	-0.181944	-0.017390	102.652142	3.878079	-0.433438	16.583775	5.098755	-24.800156	-40.569970	28.679094	7.909086	42.368020	29.489728	24.052547	4.512651	43.173114	28.507672	12.391646	-4.514647	52.391023	35.833781	0.295821	-9.365564	61.567539	44.139014
-0.945000	-160.147433	-5.066637	-73.570646	0.082104	-0.181921	-0.017382	102.654975	3.887509	-0.418384	16.557760	5.125921	-24.790842	-40.528790	28.662541	7.914808	42.359457	29.498081	24.045305	4.511148	43.172184	28.509284	12.394862	-4.515259	52.383154	35.829626	0.301488	-9.357982	61.536020	44.139038
-0.935000	-160.147433	-5.066637	-73.570646	0.082110	-0.181900	-0.017377	102.662050	3.896812	-0.408132	16.540612	5.158731	-24.785691	-40.497911	28.644731	7.921343	42.357317	29.504183	24.038142	4.510983	43.179626	28.510550	12.403645	-4.516956	52.380785	35.824272	0.318894	-9.355263	61.508101	44.134797
-0.925000	-160.147433	-5.066637	-73.570646	0.082113	-0.181882	-0.017381	102.675263	3.901710	-0.401356	16.535981	5.191106	-24.788274	-40.486944	28.630303	7.925736	42.361302	29.507081	24.028836	4.511987	43.190885	28.509430	12.411388	-4.520255	52.384761	35.817594	0.342068	-9.357870	61.484461	44.127401
-0.915000	-160.147433	-5.066637	-73.570646	0.082113	-0.181866	-0.017396	102.697494	3.899646	-0.393649	16.544195	5.218336	-24.801157	-40.503183	28.621613	7.925365	42.369389	29.505822	24.014266	4.513948	43.198596	28.503621	12.410327	-4.525694	52.394180	35.809895	0.363615	-9.364311	61.463232	44.116850
-0.905000	-160.147433	-5.066637	-73.570646	0.082110	-0.181844	-0.017425	102.730945	3.891966	-0.378811	16.560771	5.238763	-24.824101	-40.547559	28.617779	7.919354	42.378306	29.500023	23.992499	4.516715	43.196503	28.491967	12.395463	-4.533084	52.406519	35.801630	0.377915	-9.371558	61.442757	44.102999
-0.895000	-160.147433	-5.066637	-73.570646	0.082103	-0.181809	-0.017466	102.774299	3.884605	-0.351425	16.576362	5.253446	-24.853150	-40.612263	28.616426	7.909154	42.384305	29.490106	23.965823	4.520147	43.182733	28.475437	12.369191	-4.541124	52.417848	35.792829	0.384399	-9.376283	61.424097	44.086642
-0.885000	-160.147433	-5.066637	-73.570646	0.082086	-0.181752	-0.017519	102.820079	3.886525	-0.309451	16.579118	5.263510	-24.881204	-40.681383	28.617020	7.897849	42.384287	29.476966	23.942964	4.523885	43.160448	28.456774	12.344011	-4.547728	52.423010	35.782548	0.389293	-9.376381	61.411447	44.069563
-0.875000	-160.147433	-5.066637	-73.570646	0.082052	-0.181666	-0.017585	102.854277	3.906241	-0.255600	16.559253	5.266799	-24.900025	-40.734740	28.623317	7.888678	42.376850	29.461274	23.938255	4.527093	43.135688	28.438957	12.340707	-4.550894	52.416056	35.768664	0.404399	-9.371964	61.409998	44.053374
-0.865000	-160.147433	-5.066637	-73.570646	0.081994	-0.181551	-0.017668	102.859801	3.947948	-0.196903	16.513731	5.257121	-24.902938	-40.753738	28.642838	7.883778	42.362829	29.443109	23.966597	4.528515	43.114143	28.423669	12.381178	-4.549611	52.391418	35.748349	0.442566	-9.365239	61.422464	44.038132
-0.855000	-160.147433	-5.066637	-73.570646	0.081909	-0.181406	-0.017773	102.823352	4.009301	-0.142782	16.448218	5.228674	-24.887286	-40.727346	28.682939	7.883735	42.345256	29.422525	24.035533	4.526960	43.099057	28.411016	12.478046	-4.544317	52.345932	35.719316	0.511217	-9.359301	61.446407	44.022041
-0.845000	-160.147433	-5.066637	-73.570646	0.081796	-0.181240	-0.017902	102.742572	4.082268	-0.102385	16.374421	5.184554	-24.856054	-40.656726	28.745487	7.887775	42.328679	29.400709	24.138352	4.522022	43.091063	28.400624	12.625750	-4.536659	52.280892	35.681464	0.606630	-9.356537	61.474020	44.002690
-0.835000	-160.147433	-5.066637	-73.570646	0.081660	-0.181060	-0.018052	102.628579	4.156777	-0.081982	16.303123	5.143970	-24.818556	-40.557560	28.823388	7.894023	42.317797	29.380525	24.252884	4.514541	43.088954	28.392910	12.798495	-4.528684	52.202490	35.638009	0.712033	-9.357610	61.494609	43.979005
-0.825000	-160.147433	-5.066637	-73.570646	0.081504	-0.180873	-0.018216	102.500885	4.225252	-0.082999	16.236018	5.140924	-24.789850	-40.459014	28.901093	7.899625	42.315950	29.365698	24.348136	4.506389	43.090269	28.389337	12.957927	-4.521826	52.119475	35.595169	0.801533	-9.361557	61.498341	43.952507
-0.815000	-160.147433	-5.066637	-73.570646	0.081327	-0.180681	-0.018386	102.376995	4.285617	-0.101140	16.161805	5.210090	-24.788165	-40.398209	28.958588	7.901042	42.324467	29.359316	24.396210	4.499612	43.091779	28.391669	13.068098	-4.516334	52.038953	35.560263	0.849504	-9.366698	61.479207	43.927102
-0.805000	-160.147433	-5.066637	-73.570646	0.081118	-0.180482	-0.018563	102.263494	4.341067	-0.126937	16.061669	5.363128	-24.829959	-40.410237	28.976786	7.894920	42.343277	29.362920	24.383629	4.495421	43.090614	28.400953	13.110631	-4.511576	51.963231	35.538986	0.841990	-9.371467	61.435792	43.907581
-0.795000	-160.147433	-5.066637	-73.570646	0.080856	-0.180269	-0.018755	102.154747	4.396634	-0.147890	15.924374	5.567304	-24.923749	-40.516232	28.942711	7.879493	42.372188	29.376822	24.316679	4.493638	43.085919	28.416712	13.092481	-4.507079	51.890161	35.532958	0.785000	-9.374503	61.370008	43.897530
-0.785000	-160.147433	-5.066637	-73.570646	0.080526	-0.180039	-0.018975	102.039600	4.454430	-0.152040	15.763538	5.742501	-25.065450	-40.714339	28.853652	7.855792	42.411923	29.401135	24.218687	4.492856	43.079750	28.436321	13.042618	-4.503503	51.816662	35.538348	0.705263	-9.374010	61.285270	43.897319
-0.775000	-160.147433	-5.066637	-73.570646	0.080118	-0.179793	-0.019235	101.910388	4.510406	-0.132119	15.624607	5.787354	-25.237876	-40.978521	28.718949	7.827677	42.464490	29.436547	24.120517	4.491100	43.076012	28.454878	12.999093	-4.502641	51.742533	35.546269	0.641671	-9.367221	61.185803	43.903033
-0.765000	-160.147433	-5.066637	-73.570646	0.079638	-0.179539	-0.019537	101.767183	4.554810	-0.088571	15.572291	5.628874	-25.414739	-41.266359	28.557335	7.800310	42.532654	29.484177	24.047782	4.486599	43.077709	28.466259	12.991851	-4.506201	51.671860	35.545522	0.629713	-9.350935	61.077649	43.907305
-0.755000	-160.147433	-5.066637	-73.570646	0.079098	-0.179289	-0.019876	101.614762	4.576553	-0.029838	15.661081	5.270058	-25.566586	-41.531373	28.389423	7.777670	42.618228	29.544475	24.010052	4.478349	43.084524	28.465654	13.029122	-4.514085	51.611394	35.527299	0.686030	-9.323232	60.969947	43.902242
-0.745000	-160.147433	-5.066637	-73.570646	0.078515	-0.179048	-0.020246	101.456201	4.569477	0.030479	15.904380	4.803310	-25.665673	-41.732961	28.229071	7.760471	42.719442	29.615625	23.997829	4.466300	43.092890	28.452567	13.095493	-4.523407	51.566636	35.489642	0.802532	-9.285110	60.873888	43.882841
